<mxfile host="app.diagrams.net" agent="Mozilla/5.0 (Windows NT 10.0; Win64; x64) AppleWebKit/537.36 (KHTML, like Gecko) Chrome/130.0.0.0 Safari/537.36" version="24.8.0">
  <diagram id="C5RBs43oDa-KdzZeNtuy" name="Page-1">
    <mxGraphModel dx="593" dy="614" grid="1" gridSize="10" guides="1" tooltips="1" connect="1" arrows="1" fold="1" page="1" pageScale="1" pageWidth="827" pageHeight="1169" math="0" shadow="0">
      <root>
        <mxCell id="WIyWlLk6GJQsqaUBKTNV-0" />
        <mxCell id="WIyWlLk6GJQsqaUBKTNV-1" parent="WIyWlLk6GJQsqaUBKTNV-0" />
        <mxCell id="0z5r2Q25c4rV0vkfg3QP-2" value="" style="edgeStyle=orthogonalEdgeStyle;rounded=0;orthogonalLoop=1;jettySize=auto;html=1;" edge="1" parent="WIyWlLk6GJQsqaUBKTNV-1" source="0z5r2Q25c4rV0vkfg3QP-0" target="0z5r2Q25c4rV0vkfg3QP-1">
          <mxGeometry relative="1" as="geometry" />
        </mxCell>
        <mxCell id="0z5r2Q25c4rV0vkfg3QP-0" value="Client" style="ellipse;whiteSpace=wrap;html=1;" vertex="1" parent="WIyWlLk6GJQsqaUBKTNV-1">
          <mxGeometry x="370" y="30" width="120" height="40" as="geometry" />
        </mxCell>
        <mxCell id="0z5r2Q25c4rV0vkfg3QP-4" value="" style="edgeStyle=orthogonalEdgeStyle;rounded=0;orthogonalLoop=1;jettySize=auto;html=1;" edge="1" parent="WIyWlLk6GJQsqaUBKTNV-1" source="0z5r2Q25c4rV0vkfg3QP-1" target="0z5r2Q25c4rV0vkfg3QP-3">
          <mxGeometry relative="1" as="geometry" />
        </mxCell>
        <mxCell id="0z5r2Q25c4rV0vkfg3QP-1" value="API Gateway" style="rounded=1;whiteSpace=wrap;html=1;" vertex="1" parent="WIyWlLk6GJQsqaUBKTNV-1">
          <mxGeometry x="370" y="110" width="120" height="30" as="geometry" />
        </mxCell>
        <mxCell id="0z5r2Q25c4rV0vkfg3QP-6" style="edgeStyle=orthogonalEdgeStyle;rounded=0;orthogonalLoop=1;jettySize=auto;html=1;entryX=0.5;entryY=0;entryDx=0;entryDy=0;" edge="1" parent="WIyWlLk6GJQsqaUBKTNV-1" source="0z5r2Q25c4rV0vkfg3QP-3" target="0z5r2Q25c4rV0vkfg3QP-5">
          <mxGeometry relative="1" as="geometry" />
        </mxCell>
        <mxCell id="0z5r2Q25c4rV0vkfg3QP-10" value="Valid Token" style="edgeLabel;html=1;align=center;verticalAlign=middle;resizable=0;points=[];" vertex="1" connectable="0" parent="0z5r2Q25c4rV0vkfg3QP-6">
          <mxGeometry x="-0.755" y="3" relative="1" as="geometry">
            <mxPoint as="offset" />
          </mxGeometry>
        </mxCell>
        <mxCell id="0z5r2Q25c4rV0vkfg3QP-3" value="Authentication Middleware" style="rounded=1;whiteSpace=wrap;html=1;" vertex="1" parent="WIyWlLk6GJQsqaUBKTNV-1">
          <mxGeometry x="350" y="180" width="160" height="30" as="geometry" />
        </mxCell>
        <mxCell id="0z5r2Q25c4rV0vkfg3QP-8" style="edgeStyle=orthogonalEdgeStyle;rounded=0;orthogonalLoop=1;jettySize=auto;html=1;" edge="1" parent="WIyWlLk6GJQsqaUBKTNV-1" source="0z5r2Q25c4rV0vkfg3QP-5" target="0z5r2Q25c4rV0vkfg3QP-7">
          <mxGeometry relative="1" as="geometry" />
        </mxCell>
        <mxCell id="0z5r2Q25c4rV0vkfg3QP-9" value="Log Usage" style="edgeLabel;html=1;align=center;verticalAlign=middle;resizable=0;points=[];" vertex="1" connectable="0" parent="0z5r2Q25c4rV0vkfg3QP-8">
          <mxGeometry x="-0.6649" relative="1" as="geometry">
            <mxPoint as="offset" />
          </mxGeometry>
        </mxCell>
        <mxCell id="0z5r2Q25c4rV0vkfg3QP-5" value="Weight Service" style="rounded=1;whiteSpace=wrap;html=1;" vertex="1" parent="WIyWlLk6GJQsqaUBKTNV-1">
          <mxGeometry x="440" y="310" width="150" height="30" as="geometry" />
        </mxCell>
        <mxCell id="0z5r2Q25c4rV0vkfg3QP-7" value="API Endpoints" style="rounded=1;whiteSpace=wrap;html=1;" vertex="1" parent="WIyWlLk6GJQsqaUBKTNV-1">
          <mxGeometry x="540" y="440" width="120" height="30" as="geometry" />
        </mxCell>
      </root>
    </mxGraphModel>
  </diagram>
</mxfile>
